<svg version="1.1" id="Capa_1" xmlns="http://www.w3.org/2000/svg" xmlns:xlink="http://www.w3.org/1999/xlink" x="0px" y="0px"
	 width="135px" height="135px" viewBox="0 0 135 135" style="enable-background:new 0 0 135 135;" xml:space="preserve">
<g>
	<g>
		<path d="M18.003,118.758c0.501,2.246,1.004,4.503,1.505,6.761c31.601-7.066,64.37-7.066,95.969,0
			c0.506-2.258,1.018-4.515,1.514-6.761C84.401,111.47,50.599,111.47,18.003,118.758z"/>
		<path d="M62.585,96.588c-7.386,0.147-14.763,0.654-22.111,1.509c3.148,1.255,5.474,3.934,5.787,7.351
			c0.243,2.6-0.653,5.052-2.22,6.908c5.629-0.611,11.293-0.997,16.957-1.165c-1.798-1.625-3.024-3.924-3.138-6.539
			C57.71,101.229,59.637,98.255,62.585,96.588z"/>
		<path d="M94.531,98.097c-7.341-0.854-14.733-1.361-22.122-1.509c2.953,1.677,4.889,4.641,4.726,8.068
			c-0.111,2.626-1.335,4.915-3.133,6.539c5.658,0.18,11.316,0.56,16.954,1.171c-1.551-1.867-2.457-4.313-2.215-6.908
			C89.058,102.041,91.378,99.352,94.531,98.097z"/>
		<path d="M107.895,108.095c-0.475,2.578-2.004,4.672-4.019,6.043c3.887,0.654,7.757,1.414,11.612,2.268
			c1.049-4.735,2.109-9.481,3.175-14.228c-4.778-1.055-9.566-1.972-14.376-2.742C106.998,101.492,108.506,104.72,107.895,108.095z"
			/>
		<path d="M30.715,99.436c-4.812,0.771-9.6,1.688-14.375,2.742c1.06,4.746,2.122,9.481,3.174,14.228
			c3.857-0.864,7.728-1.624,11.612-2.268c-2.009-1.371-3.538-3.48-4.013-6.064C26.491,104.72,28.01,101.492,30.715,99.436z"/>
		<path d="M109.593,87.286l2.251,2.341c1.704-1.646,3.243-3.265,4.594-4.841l-2.468-2.12
			C112.693,84.164,111.217,85.714,109.593,87.286z"/>
		<path d="M121.104,66.107v0.053l3.254-0.053c0-2.341-0.369-4.646-1.113-6.858l-3.085,1.042
			C120.788,62.158,121.104,64.125,121.104,66.107z"/>
		<path d="M119.934,72.499c-0.396,1.604-1.16,3.322-2.263,5.146l2.785,1.688c1.271-2.104,2.156-4.14,2.584-5.854l0.147-0.411
			l-3.074-1.055L119.934,72.499z"/>
		<path d="M21.022,82.677l-2.468,2.125c1.35,1.571,2.895,3.186,4.59,4.836l2.257-2.347C23.78,85.714,22.307,84.164,21.022,82.677z"
			/>
		<path d="M14.845,60.291l-3.083-1.042c-0.746,2.212-1.124,4.517-1.124,6.858v0.053l3.257-0.053
			C13.896,64.125,14.212,62.158,14.845,60.291z"/>
		<path d="M14.887,71.993l-2.985,1.297c0.48,1.909,1.366,3.939,2.634,6.043l2.787-1.688c-1.107-1.813-1.864-3.543-2.263-5.146
			L14.887,71.993z"/>
		<path d="M37.724,82.856c1.215,1.682,2.523,3.343,3.899,4.999l2.5-2.089c-1.329-1.592-2.592-3.206-3.768-4.819L37.724,82.856z"/>
		<path d="M51.748,37.125l0.836-3.144c-2.263-0.614-4.612-0.728-6.858-0.334l0.541,3.204C48.064,36.563,49.934,36.655,51.748,37.125
			z"/>
		<path d="M34.198,77.551l2.792-1.672c-1.107-1.846-2.025-3.639-2.721-5.331l-3.009,1.26C32.022,73.638,33.009,75.579,34.198,77.551
			z"/>
		<path d="M32.556,64.837c-0.512-2.099-0.778-3.953-0.831-5.819l-3.256,0.108c0.065,2.104,0.355,4.161,0.917,6.487L32.556,64.837z"
			/>
		<path d="M60.702,43.725l2.645-1.896c-1.36-1.901-2.927-3.523-4.659-4.817l-1.951,2.602C58.2,40.716,59.534,42.087,60.702,43.725z"
			/>
		<path d="M41.164,38.831L39.103,36.3c-1.751,1.154-3.338,2.612-4.725,4.313l2.521,2.057C38.074,41.217,39.424,39.993,41.164,38.831
			z"/>
		<path d="M33.89,47.601l-2.975-1.311c-0.88,1.98-1.534,4.098-1.943,6.289l3.196,0.601C32.534,51.242,33.112,49.367,33.89,47.601z"
			/>
		<path d="M78.205,39.675l-1.973-2.592c-1.729,1.316-3.28,2.948-4.619,4.849l2.663,1.867C75.421,42.174,76.739,40.779,78.205,39.675
			z"/>
		<path d="M102.483,64.694l3.144,0.796c0.548-2.106,0.844-4.287,0.907-6.507l-3.26-0.09
			C103.228,60.874,102.958,62.817,102.483,64.694z"/>
		<path d="M100.807,77.403c1.166-1.973,2.151-3.913,2.927-5.748l-3-1.25c-0.718,1.693-1.635,3.496-2.722,5.332L100.807,77.403z"/>
		<path d="M106.001,52.449c-0.422-2.196-1.081-4.309-1.967-6.286l-2.975,1.334c0.781,1.74,1.366,3.612,1.746,5.563L106.001,52.449z"
			/>
		<path d="M98.054,42.583l2.5-2.073c-1.376-1.664-2.938-3.072-4.651-4.21l-0.348-0.227l-1.772,2.732l0.338,0.216
			C95.555,39.97,96.873,41.175,98.054,42.583z"/>
		<path d="M88.641,36.845l0.522-3.214c-2.278-0.361-4.614-0.227-6.86,0.388l0.87,3.138C84.955,36.671,86.843,36.563,88.641,36.845z"
			/>
		<path d="M97.306,82.719l-2.632-1.914c-1.176,1.63-2.426,3.243-3.744,4.847l2.516,2.072C94.806,86.062,96.098,84.386,97.306,82.719
			z"/>
		<path d="M135,64.483c0-11.979-6.771-23.016-17.688-28.822c-4.309-2.272-9.112-3.57-14.006-3.91
			c-0.934-0.804-1.909-1.571-2.927-2.252c-9.218-6.059-21.047-5.168-29.621,1.588v-8.185h8.332v-6.508h-8.332V9.481h-6.51v6.913
			h-8.338v6.508h8.338v8.163c-8.585-6.745-20.39-7.631-29.629-1.566c-0.979,0.644-1.896,1.371-2.787,2.144
			c-5.25,0.108-10.434,1.479-15.04,4.05C6.436,41.504,0,52.536,0,64.473c0,3.443,0.54,6.855,1.524,9.835
			C2.9,80.583,7.09,87.159,12.408,93.498c-0.016,0-0.026,0-0.042,0c0.501,2.257,1.004,4.493,1.505,6.75
			c35.316-7.899,71.948-7.899,107.27,0c0.495-2.247,1.007-4.493,1.503-6.75c-0.175-0.032-0.354-0.063-0.522-0.101
			c5.479-6.217,9.777-12.635,11.19-18.742C134.431,71.36,135,67.942,135,64.483z M70.759,40.458
			c6.528-8.696,17.529-11.108,26.046-5.508c7.019,4.633,11.369,13.532,11.369,23.225c0,2.824-0.374,5.613-1.176,8.546
			c-1.318,7.082-6.286,14.892-12.351,22.18c-6.444-0.696-12.909-1.065-19.385-1.255c1.218-1.624,2.004-3.575,2.004-5.754
			c0-4.239-2.722-7.815-6.508-9.165V40.458L70.759,40.458z M67.5,78.638c1.798,0,3.259,1.46,3.259,3.253s-1.461,3.254-3.259,3.254
			c-1.799,0-3.257-1.461-3.257-3.259C64.243,80.087,65.701,78.638,67.5,78.638z M38.201,34.955
			c3.174-2.091,6.602-3.148,10.193-3.148c6.043,0,11.747,3.175,15.855,8.627v32.287c-3.779,1.35-6.508,4.925-6.508,9.165
			c0,2.173,0.778,4.124,1.988,5.748c-6.441,0.189-12.891,0.559-19.306,1.25c-6.107-7.356-11.129-15.262-12.474-22.449
			c-0.744-2.705-1.115-5.49-1.115-8.276C26.826,48.486,31.185,39.587,38.201,34.955z M7.791,72.626
			c-0.852-2.647-1.284-5.385-1.284-8.143c0-9.587,5.163-18.438,13.463-23.098c1.78-0.989,3.676-1.74,5.627-2.283
			c-1.988,3.259-3.483,6.9-4.353,10.8l-1.39-1.798c-1.872,1.45-3.504,3.114-4.865,4.952l2.621,1.928
			c0.949-1.292,2.104-2.452,3.362-3.533c-0.393,2.193-0.657,4.43-0.657,6.718c0,3.375,0.454,6.737,1.284,9.737
			c1.345,7.199,5.74,14.813,11.27,21.996c-4.4,0.606-8.791,1.329-13.17,2.167C13.813,85.599,9.17,78.849,7.791,72.626z
			 M127.058,72.879c-1.413,6.075-6.212,12.709-12.334,19.09c-4.172-0.791-8.348-1.477-12.546-2.057
			c5.484-7.119,9.835-14.649,11.148-21.743c0.896-3.222,1.35-6.589,1.35-10c0-2.284-0.264-4.519-0.653-6.706
			c1.255,1.073,2.404,2.233,3.364,3.525l2.615-1.933c-1.35-1.838-3-3.501-4.862-4.952l-1.392,1.798
			c-0.823-3.739-2.247-7.228-4.093-10.375c1.572,0.503,3.111,1.102,4.609,1.89c8.775,4.667,14.228,13.5,14.228,23.066
			C128.492,67.23,128.039,69.952,127.058,72.879z"/>
	</g>
</g>
<g>
</g>
<g>
</g>
<g>
</g>
<g>
</g>
<g>
</g>
<g>
</g>
<g>
</g>
<g>
</g>
<g>
</g>
<g>
</g>
<g>
</g>
<g>
</g>
<g>
</g>
<g>
</g>
<g>
</g>
</svg>
